<?xml version="1.0" encoding="UTF-8" standalone="no"?>
<svg
   id="svg"
   version="1.1"
   width="400"
   height="545.9016393442623"
   viewBox="0, 0, 400,545.9016393442623"
   sodipodi:docname="logo_white.svg"
   inkscape:version="1.3.2 (1:1.3.2+202311252150+091e20ef0f)"
   inkscape:export-filename="logo_white.png"
   inkscape:export-xdpi="300"
   inkscape:export-ydpi="300"
   xmlns:inkscape="http://www.inkscape.org/namespaces/inkscape"
   xmlns:sodipodi="http://sodipodi.sourceforge.net/DTD/sodipodi-0.dtd"
   xmlns="http://www.w3.org/2000/svg"
   xmlns:svg="http://www.w3.org/2000/svg">
  <defs
     id="defs1" />
  <sodipodi:namedview
     id="namedview1"
     pagecolor="#ffffff"
     bordercolor="#666666"
     borderopacity="1.0"
     inkscape:showpageshadow="2"
     inkscape:pageopacity="0.0"
     inkscape:pagecheckerboard="0"
     inkscape:deskcolor="#d1d1d1"
     inkscape:zoom="2.0482244"
     inkscape:cx="234.83755"
     inkscape:cy="280.48685"
     inkscape:window-width="2560"
     inkscape:window-height="1403"
     inkscape:window-x="1920"
     inkscape:window-y="314"
     inkscape:window-maximized="1"
     inkscape:current-layer="svg" />
  <g
     id="svgg"
     transform="translate(-1.6625557,2.8507473)">
    <path
       id="path2"
       d="m 87.6,6.4 c 0,0.22 -0.695,0.4 -1.545,0.4 -1.431,0 -1.53,0.073 -1.353,1 0.165,0.861 0.045,1 -0.855,1 -0.576,0 -1.047,-0.163 -1.047,-0.363 0,-0.449 -1.525,-0.082 -1.851,0.446 -0.132,0.213 -0.013,0.596 0.265,0.852 0.365,0.337 0.433,0.339 0.247,0.007 C 81.25,9.366 81.954,8.8 82.633,8.8 c 0.693,0 0.006,1.567 -0.733,1.672 -0.718,0.102 -0.925,0.424 -1.022,1.587 -0.087,1.048 -0.341,1.516 -0.9,1.663 -0.755,0.197 -0.778,0.697 -0.778,17.096 0,15.628 -0.052,16.932 -0.7,17.406 -0.954198,0.697522 -1.665828,94.26419 0.117,91.912 0.48,-0.633 0.559,1.629 0.57,16.168 0.013,16.401 0.037,16.924 0.813,17.589 0.59,0.505 0.8,1.18 0.8,2.57 0,2.308 0.575,3.937 1.39,3.937 0.343,0 0.61,0.35 0.61,0.8 0,0.533 0.267,0.8 0.8,0.8 0.533,0 0.8,0.267 0.8,0.8 0,0.533 0.267,0.8 0.8,0.8 0.44,0 0.8,-0.259 0.8,-0.576 0,-1.07 6.3,-0.745 11.182,0.577 0.78,0.211 9.698,0.57 19.818,0.797 10.12,0.227 19.21,0.583 20.2,0.791 2.633,0.554 24.224,1.262 25.303,0.829 0.938,-0.376 2.761,-2.016 10.145,-9.132 2.447,-2.357 6.137,-5.881 8.2,-7.831 7.441,-7.03 7.178,-6.741 6.908,-7.594 -0.14,-0.44 -0.414,-0.993 -0.611,-1.23 -0.818,-0.989 -2.219,-3.384 -3.294,-5.631 -3.497,-7.313 -2.299,-6.748 -13.717,-6.476 -10.497,0.25 -8.865,-0.459 -16.599,7.211 -8.32,8.251 -7.524,7.912 -18.378,7.83 l -8.643,-0.065 -2.157,1.136 c -3.177,1.673 -9.974,1.677 -12.844,0.008 -2.061,-1.199 -5.513,-4.49 -5.513,-5.256 0,-0.264 -0.335,-0.909 -0.745,-1.434 -1.232,-1.578 -1.763,-5.798 -1.108,-8.807 2.658,-12.209 16.514,-15.476 24.548,-5.788 0.627,0.756 2.375,4.587 2.565,5.624 0.318,1.727 6.317,1.83 8.769,0.15 2.536,-1.737 7.171,-6.996 7.171,-8.137 0,-0.839 -2.444,-3.488 -12.34,-13.375 l -12.34,-12.328 -4.36,-0.159 c -12.89,-0.468 -17.313,-15.442 -6.775,-22.934 7.366,-5.237 19.815,0.943 19.815,9.836 0,2.078 0.131,2.48 1.07,3.267 1.809,1.518 6.029,5.557 8.847,8.469 1.476,1.524 6.204,6.339 10.507,10.7 l 7.823,7.928 9.177,-0.006 c 10.401,-0.007 10.02,0.089 10.29,-2.594 0.468,-4.654 1.168,-8.459 1.708,-9.286 0.318,-0.487 0.578,-1.124 0.578,-1.416 0,-0.573 4.106,-8.862 4.811,-9.711 0.796,-0.96 -0.322,-1.044 -12.318,-0.929 l -11.893,0.115 -1.919,-1.136 c -2.168,-1.282 -5.473,-4.235 -9.645,-8.615 -1.56,-1.638 -3.826,-3.983 -5.036,-5.211 -2.755,-2.796 -9.647,-10.24 -9.98,-10.778 -0.464,-0.751 -3.241,-1.655 -6.261,-2.038 -2.759,-0.35 -4.649,-0.938 -6.759,-2.104 -0.44,-0.244 -1.43,-0.755 -2.2,-1.136 -2.036,-1.009 -7.576,-6.593 -7.595,-7.655 -0.003,-0.165 -0.365,-0.66 -0.805,-1.1 -0.44,-0.44 -0.8,-1.12 -0.8,-1.511 0,-0.391 -0.27,-1.096 -0.599,-1.567 -1.579,-2.253 -1.721,-12.578 -0.221,-15.97 0.406,-0.918 0.864,-2.24 1.017,-2.937 0.153,-0.698 0.515,-1.36 0.805,-1.471 0.289,-0.111 0.632,-0.625 0.762,-1.143 0.293,-1.167 5.503,-6.446 6.733,-6.82 0.497,-0.152 1.187,-0.524 1.535,-0.829 3.898,-3.412 20.163,-3.519 22.368,-0.148 0.11,0.168 0.89,0.593 1.733,0.945 1.619,0.674 7.867,6.714 7.867,7.605 0,0.287 0.36,0.848 0.8,1.246 0.44,0.398 0.801,1.011 0.802,1.362 0.002,0.351 0.311,1.178 0.689,1.838 2.35,4.114 -0.057,19.474 -3.372,21.52 -0.286,0.176 -0.519,0.549 -0.519,0.83 0,0.281 -0.45,0.933 -1,1.45 -1.345,1.264 -1.551,0.9 3.41,6.035 11.167,11.561 12.836,13.14 14.322,13.553 1.782,0.495 26.033,0.549 26.805,0.059 0.564,-0.357 -0.131,-2.047 -0.841,-2.047 -0.172,0 -1.254,-1.012 -2.404,-2.248 -1.151,-1.236 -3.487,-3.67 -5.192,-5.409 -1.705,-1.738 -3.1,-3.303 -3.1,-3.476 0,-0.851 -2.424,-1.991 -4.818,-2.265 -4.039,-0.463 -9.871,-4.733 -9.996,-7.32 -0.007,-0.155 -0.361,-1.002 -0.786,-1.882 -2.629,-5.443 0.532,-13.287 6.8,-16.87 3.776,-2.159 11.194,-1.323 14.31,1.613 4.112,3.873 4.985,5.728 5.206,11.057 l 0.174,4.2 3.529,3.6 c 5.226,5.332 10.534,11.01 10.924,11.687 0.189,0.328 0.927,1.162 1.639,1.855 0.713,0.692 1.403,1.559 1.533,1.927 0.377,1.069 5.883,1.002 7.935,-0.096 1.14,-0.61 10.424,-0.448 13.015,0.227 1.266,0.33 2.869,0.6 3.561,0.6 h 1.257 l 0.282,-17.7 c 0.225,-14.146 0.177,-17.984 -0.242,-19.113 -1.314,-3.547 -3.145,-4.581 -7.923,-4.474 -5.6,0.126 -6.134,0.297 -8.453,2.705 -6.679,6.935 -18.053,5.883 -21.822,-2.018 -0.315,-0.66 -0.818,-1.633 -1.117,-2.162 -1.217,-2.154 -1.031,-9.559 0.28,-11.143 0.23,-0.277 0.709,-1.084 1.065,-1.791 2.434,-4.841 10.379,-7.495 15.996,-5.344 1.651,0.632 6.051,3.742 6.051,4.276 0,0.136 0.462,0.746 1.027,1.356 l 1.027,1.108 7.1,-0.287 c 10.163,-0.411 13.82,1.14 18.389,7.797 l 1.739,2.535 0.221,4.787 c 0.178,3.872 0.313,4.661 0.703,4.128 0.265,-0.363 0.627,-0.66 0.805,-0.66 0.177,0 0.607,-0.283 0.955,-0.628 0.349,-0.346 2.029,-1.954 3.734,-3.575 l 3.1,-2.946 V 40.01 c 0,-4.589 0.552,-6.586 2.349,-8.505 0.358,-0.382 1.011,-1.075 1.451,-1.54 7.142,-7.545 21.201,-0.878 21.161,10.035 -0.021,5.689 -5.351,12.4 -9.85,12.4 -1.987,0 -4.264,1.506 -7.82,5.174 -2.04,2.104 -5.865,6.04 -8.5,8.745 l -4.791,4.919 -0.003,9.481 c -0.001,5.215 -0.115,10.668 -0.252,12.118 -0.473,5.006 1.769,4.254 9.347,-3.135 3.104,-3.026 7.593,-7.331 9.976,-9.566 2.383,-2.235 6.532,-6.195 9.222,-8.8 2.689,-2.605 6.784,-6.504 9.1,-8.665 l 4.21,-3.93 v -2.673 c 0,-5.843 3.798,-11.434 9.6,-14.135 2.276,-1.06 10.357,-0.639 12.962,0.675 7.415,3.741 10.664,11.19 8.203,18.808 -0.459,1.421 -0.999,2.584 -1.2,2.584 -0.201,0 -0.365,0.203 -0.365,0.452 0,0.634 -2.694,3.553 -4.385,4.75 -3.659,2.591 -5.051,2.995 -10.46,3.037 -3.632,0.028 -5.268,0.196 -5.841,0.6 -1.077,0.759 -8.828,8.028 -13.927,13.061 -2.285,2.255 -4.341,4.1 -4.571,4.1 -0.229,0 -0.416,0.183 -0.416,0.406 0,0.224 -0.911,1.259 -2.024,2.3 -7.616,7.128 -14.837,14.471 -14.603,14.851 0.393,0.636 30.743,0.62 31.953,-0.016 0.481,-0.253 1.657,-1.198 2.614,-2.1 4.047,-3.817 9.162,-8.745 16.966,-16.349 11.709,-11.408 22.149,-21.447 26.859,-25.826 0.789,-0.733 1.435,-1.498 1.435,-1.7 0,-0.201 0.163,-0.366 0.362,-0.366 0.54,0 4.243,-3.684 4.566,-4.543 0.215,-0.571 -0.538,-1.639 -3.241,-4.6 -6.755,-7.398 -7.651,-9.435 -6.867,-15.613 0.799,-6.304 4.207,-8.676 10.15,-7.067 2.689,0.728 3.004,1.095 4.142,4.823 0.41,1.343 1.038,1.437 3.979,0.593 6.475,-1.859 8.617,1.93 8.825,15.607 0.183,11.993 0.178,12.016 -3.656,15.737 -11.832,11.483 -17.741,17.251 -26.46,25.828 -5.5,5.41 -11.284,11.03 -12.854,12.487 -3.775,3.505 -3.888,3.444 6.654,3.556 11.716,0.124 10.821,0.236 13.056,-1.633 6.483,-5.419 13.604,-5.336 19.163,0.223 6.37,6.37 5.367,15.546 -2.373,21.719 -1.587,1.265 -7.885,2.387 -9.527,1.697 -0.506,-0.213 -1.686,-0.58 -2.623,-0.817 -1.158,-0.292 -2.372,-1.076 -3.783,-2.444 -1.143,-1.107 -2.389,-2.18 -2.769,-2.383 -1.146,-0.613 -73.138,-0.485 -73.169,0.13 -0.014,0.275 -0.007,3.56 0.014,7.3 0.036,6.118 -0.102,7.671 -1.02,11.505 l -0.264,1.106 23.676,-0.106 c 22.128,-0.098 23.701,-0.151 24.07,-0.81 2.891,-5.167 12.445,-7.486 17.549,-4.258 0.55,0.347 1.49,0.932 2.089,1.299 8.298,5.087 7.111,18.222 -2.131,23.565 -2.961,1.712 -10.592,2.007 -12.13,0.47 -0.314,-0.314 -0.69,-0.571 -0.835,-0.571 -0.145,0 -1.19,-0.81 -2.322,-1.8 l -2.057,-1.8 h -24.107 c -15.362,0 -24.107,0.141 -24.107,0.389 0,0.544 17.531,17.946 19,18.861 1.143,0.711 2.585,0.747 30.316,0.749 33.693,0.001 35.321,0.102 40.186,2.475 3.479,1.698 8.137,5.754 8.718,7.592 0.162,0.514 0.58,1.369 0.927,1.9 4.215,6.447 1.591,17.335 -5.547,23.015 -8.62,6.858 -26.854,1.989 -28.991,-7.742 -0.151,-0.686 -0.549,-1.798 -0.885,-2.471 -0.457,-0.916 -0.574,-2.195 -0.467,-5.096 L 334.2,196.2 309,196 c -21.267,-0.169 -25.4,-0.294 -26.479,-0.8 -1.813,-0.85 -6.523,-5.139 -10.622,-9.671 -1.926,-2.13 -4.041,-4.141 -4.7,-4.47 L 266,180.461 v 10.77 c 0,5.923 0.152,10.769 0.339,10.769 0.186,0 0.501,0.344 0.7,0.764 1.046,2.212 24.268,25.636 25.416,25.636 0.786,0 3.689,-2.134 5.969,-4.388 1.303,-1.289 2.262,-3.658 2.517,-6.22 1.06,-10.659 15.23,-14.751 22.091,-6.379 7.028,8.576 0.679,20.987 -10.737,20.987 h -2.797 l -3.149,3.179 c -3.39,3.422 -3.731,4.296 -2.239,5.74 1.973,1.909 4.175,4.97 4.816,6.695 0.621,1.669 0.683,6.921 0.776,65.669 0.057,35.12 0.243,63.995 0.414,64.167 0.172,0.171 1.221,-0.67 2.332,-1.869 7.609,-8.216 11.75,-12.575 14.461,-15.219 1.713,-1.671 3.559,-3.641 4.103,-4.378 l 0.988,-1.339 -0.028,-42.223 -0.027,-42.222 -2.373,-1.913 c -1.304,-1.052 -2.372,-2.168 -2.372,-2.48 0,-0.312 -0.235,-0.711 -0.522,-0.887 -2.84,-1.74 -4.68,-10.673 -3.232,-15.685 0.924,-3.2 1.021,-3.392 3.55,-7.075 1.609,-2.344 5.676,-5.76 6.857,-5.76 0.325,0 1.436,-0.39 2.469,-0.867 2.661,-1.228 8.78,-1.216 11.089,0.022 0.868,0.465 1.854,0.845 2.192,0.845 0.338,0 1.601,0.639 2.806,1.42 13.037,8.453 11.284,27.634 -3.073,33.633 L 348,272.411 v 43.404 43.405 l 1.026,0.39 c 0.564,0.214 3.309,0.391 6.1,0.392 7.536,0.004 10.128,1.258 12.099,5.856 2.863,6.68 1.22,7.258 -20.778,7.314 -13.191,0.034 -10.832,-1.035 -21.453,9.72 -11.923,12.075 -14.431,14.823 -15.285,16.756 -1,2.259 -1.503,11.554 -0.814,15.036 4.223,21.35 -22.778,30.652 -31.386,10.812 -1.179,-2.718 -1.337,-10.244 -0.25,-11.896 0.362,-0.55 0.784,-1.423 0.939,-1.939 0.303,-1.012 0.433,-1.187 3.249,-4.361 1.024,-1.155 2.108,-2.1 2.408,-2.1 0.3,0 0.545,-0.142 0.545,-0.315 0,-0.174 1.511,-1.299 3.358,-2.5 1.847,-1.202 3.759,-2.769 4.25,-3.483 l 0.893,-1.298 -0.02,-71.502 c -0.011,-39.326 -0.033,-71.78 -0.05,-72.121 -0.049,-0.975 -0.753,-1.741 -13.031,-14.167 -23.171,-23.451 -28.164,-28.686 -28.994,-30.401 -0.791,-1.635 -0.822,-2.341 -0.806,-18.656 l 0.017,-16.957 -0.887,0.109 c -0.488,0.06 -1.181,0.375 -1.54,0.7 -0.359,0.325 -0.821,0.591 -1.027,0.591 -0.206,0 -1.002,0.334 -1.769,0.741 -0.767,0.408 -2.114,0.874 -2.994,1.036 -0.88,0.162 -1.805,0.464 -2.056,0.671 -0.763,0.63 -6.794,1.146 -13.444,1.149 l -6.3,0.003 0.002,14.1 0.003,14.1 4.097,4.36 c 2.254,2.398 8.553,8.805 13.998,14.238 5.445,5.433 9.905,10.041 9.911,10.24 0.006,0.199 0.629,0.812 1.384,1.362 0.755,0.55 1.875,1.672 2.489,2.493 0.614,0.822 1.41,1.592 1.77,1.713 0.36,0.12 1.15,0.933 1.755,1.806 0.605,0.874 1.221,1.588 1.369,1.588 0.23,0 0.998,0.726 4.739,4.481 0.284,0.285 1.004,1.043 1.6,1.684 0.596,0.64 1.611,1.63 2.257,2.2 1.937,1.707 5.12,5.183 6.001,6.552 0.824,1.281 0.825,1.384 0.93,66.628 l 0.104,65.345 -0.883,1.455 c -0.486,0.8 -1.046,1.567 -1.244,1.703 -0.533,0.366 -7.87,7.356 -14.436,13.752 -3.162,3.08 -7.772,7.49 -10.245,9.8 -4.363,4.076 -9.491,8.955 -14.001,13.319 -1.21,1.171 -2.515,2.248 -2.9,2.393 -0.385,0.144 -0.7,0.431 -0.7,0.637 0,0.206 -0.797,0.842 -1.771,1.413 l -1.771,1.038 -39.129,-0.008 -39.129,-0.007 -2,-1.246 c -1.104,-0.687 -6.751,-6.089 -12.6,-12.052 -23.49,-23.947 -28.776,-29.382 -30.646,-31.508 -2.956,-3.36 -3.497,-3.673 -6.915,-3.995 -3.144,-0.297 -4.439,-0.642 -4.439,-1.183 0,-0.173 -0.426,-0.421 -0.947,-0.552 -3.911,-0.982 -7.47,-11.407 -5.436,-15.923 2.348,-5.212 7.664,-9.094 12.488,-9.12 1.541,-0.008 6.675,1.459 7.452,2.13 5.734,4.949 7.525,9.29 6.299,15.274 l -0.33,1.611 7.058,7.189 c 16.995,17.313 22.981,23.277 24.642,24.551 0.976,0.748 2.314,2.045 2.974,2.881 0.66,0.837 1.363,1.529 1.561,1.539 0.199,0.011 1.009,0.704 1.8,1.542 0.792,0.838 2.124,1.918 2.962,2.4 l 1.523,0.877 h 33.193 33.193 l 1.248,-0.9 c 0.687,-0.495 2.435,-2.043 3.884,-3.439 l 2.636,-2.54 v -13.194 c 0,-8.329 -0.147,-13.304 -0.4,-13.493 -0.22,-0.165 -1.48,-0.532 -2.8,-0.816 -1.32,-0.283 -3.03,-0.672 -3.8,-0.864 -0.77,-0.192 -1.597,-0.351 -1.837,-0.352 -0.241,-0.001 -3.132,2.653 -6.425,5.898 -13.455,13.257 -17.538,17.014 -19.318,17.777 -2.873,1.232 -39.186,1.182 -42.433,-0.058 -5.101,-1.949 -7.73,-6.661 -5.799,-10.395 1.015,-1.963 1.692,-2.024 22.417,-2.024 h 19.285 l 1.357,-1.1 c 0.747,-0.605 6.339,-6.095 12.427,-12.2 6.088,-6.105 11.249,-11.1 11.468,-11.1 1.941,0 1.546,-2.421 -0.798,-4.889 -2.743,-2.889 -4.099,-5.117 -5.179,-8.511 -0.743,-2.334 -0.764,-4.917 -0.746,-93.708 0.01,-50.22 -0.098,-91.496 -0.239,-91.725 -1.186,-1.918 -3.176,-1.133 -6.422,2.534 -0.243,0.274 -1.323,1.352 -2.4,2.394 -1.077,1.042 -2.138,2.084 -2.358,2.316 -0.22,0.232 -2.797,2.761 -5.726,5.618 -6.469,6.312 -6.423,6.215 -6.719,14.275 -0.156,4.25 -0.482,7.271 -1.004,9.296 -0.965,3.746 -0.957,113.767 0.009,118.8 0.286,1.489 0.522,6.189 0.553,11 l 0.054,8.4 -1.331,3.2 c -0.733,1.76 -1.58,3.344 -1.884,3.52 -0.304,0.176 -0.552,0.856 -0.552,1.512 0,0.704 -0.252,1.29 -0.615,1.429 -0.338,0.13 -0.894,0.777 -1.236,1.437 -1.893,3.661 -7.627,7.859 -13.24,9.693 -2.568,0.839 -13.71,0.769 -14.57,-0.091 -0.274,-0.275 -0.909,-0.5 -1.41,-0.5 -0.797,0 -4.868,-1.795 -7.676,-3.385 -1.594,-0.902 -5.208,-4.698 -6.097,-6.403 -2.201,-4.223 -2.807,-5.572 -3.029,-6.744 -0.133,-0.697 -1.115,-2.347 -2.184,-3.666 -4.22729,-5.21834 -2.77021,-3.89821 -5.03547,-7.02056 -0.38111,-0.52531 -0.70053,-0.72144 -1.05853,-1.23244 -0.594,-0.849 -0.623,-0.85 -10.722,-0.444 -10.46,0.421 -78.45,0.309 -82.221,-0.135 -3.528366,-0.3289 -2.072662,-0.18557 -5.59,-0.17 -2.654,0 -3.014,0.09 -3.2,0.8 -0.159,0.606 -0.546,0.8 -1.6,0.8 -1.054,0 -1.441,0.194 -1.6,0.8 -0.12,0.46 -0.546,0.8 -1,0.8 -0.442,0 -0.879,0.337 -0.99,0.763 -0.11,0.42 -0.543,0.853 -0.963,0.963 -0.566,0.148 -0.763,0.558 -0.763,1.59 0,1.054 -0.194,1.441 -0.8,1.6 -0.68,0.178 -0.8,0.546 -0.8,2.447 0,1.23 -0.18,2.237 -0.4,2.237 -0.261,0 -0.4,7 -0.4,20.2 0,13.2 0.139,20.2 0.4,20.2 0.241,0 0.4,1.679 0.4,4.237 0,3.901 0.064,4.255 0.8,4.447 0.714,0.187 0.8,0.546 0.8,3.336 0,2.775 0.09,3.155 0.8,3.38 0.689,0.219 0.8,0.605 0.8,2.794 0,2.899 0.249,3.806 1.043,3.806 0.41,0 0.557,0.592 0.557,2.237 0,1.901 0.12,2.269 0.8,2.447 0.556,0.146 0.8,0.546 0.8,1.313 0,2.086 0.487,3.577 1.248,3.818 0.605,0.192 0.752,0.633 0.752,2.249 0,1.674 0.134,2.046 0.8,2.22 0.647,0.169 0.42834,0.95548 0.8,1.963 l 9.546519,17.07504 c 2.29287,2.96841 3.014404,3.22518 4.053481,4.47796 0.209,0.55 0.569,1 0.799,1 0.23,0 0.631,0.468 0.892,1.039 0.26,0.572 1.156,1.787 1.991,2.7 0.835,0.913 1.518,1.773 1.518,1.911 0,0.138 1.62,2.275 3.6,4.75 1.98,2.475 3.6,4.657 3.6,4.85 0,0.192 0.27,0.35 0.6,0.35 0.33,0 0.6,0.165 0.6,0.367 0,0.463 2.503,3.271 8.588,9.633 3.211,3.357 11.746,11.6 12.011,11.6 0.145,0 0.953,0.675 1.796,1.5 2.235,2.189 5.155,4.624 6.251,5.213 0.525,0.282 0.954,0.687 0.954,0.9 0,0.213 0.204,0.387 0.454,0.387 0.25,0 0.863,0.405 1.362,0.9 1.231,1.22 1.86,1.701 3.009,2.301 0.536,0.28 1.245,0.746 1.575,1.036 1.847,1.619 2.374,2.026 3.434,2.651 0.641,0.378 1.616,0.914 2.166,1.191 0.55,0.277 1.144,0.733 1.32,1.013 0.176,0.279 0.547,0.508 0.824,0.508 0.278,0 0.862,0.332 1.298,0.739 0.881,0.82 2.398,1.704 4.658,2.713 0.825,0.368 1.5,0.808 1.5,0.978 0,0.169 0.63,0.516 1.4,0.77 0.77,0.254 1.4,0.614 1.4,0.8 0,0.186 0.616,0.541 1.368,0.789 0.752,0.249 1.584,0.713 1.849,1.031 0.265,0.319 0.911,0.58 1.436,0.58 0.525,0 1.263,0.36 1.64,0.8 0.377,0.44 1.071,0.8 1.542,0.8 0.471,0 1.315,0.36 1.874,0.8 0.56,0.44 1.28,0.8 1.6,0.8 0.321,0 1.012,0.337 1.537,0.748 0.525,0.411 1.527,0.873 2.226,1.026 0.7,0.152 1.472,0.517 1.715,0.81 0.243,0.293 1.11,0.656 1.927,0.808 0.817,0.152 1.756,0.508 2.086,0.791 0.33,0.284 1.257,0.633 2.06,0.777 0.803,0.144 1.676,0.522 1.94,0.84 0.264,0.318 1.137,0.694 1.94,0.834 0.803,0.141 1.839,0.492 2.302,0.782 0.462,0.289 1.542,0.655 2.4,0.814 0.857,0.158 2.185,0.621 2.952,1.029 0.767,0.407 1.847,0.742 2.4,0.744 0.553,10e-4 1.546,0.36 2.206,0.797 0.66,0.437 1.83,0.797 2.6,0.8 0.77,0.003 1.94,0.289 2.6,0.636 0.66,0.347 2.261,0.805 3.558,1.016 1.297,0.211 2.732,0.646 3.189,0.966 0.457,0.32 1.562,0.582 2.455,0.582 0.893,0 2.608,0.285 3.811,0.633 1.203,0.348 3.897,0.794 5.987,0.991 2.09,0.197 5.06,0.677 6.6,1.067 4.14,1.048 49.535,1.032 53.067,-0.02 1.267,-0.376 4.444,-0.779 7.2,-0.911 2.713,-0.13 5.655,-0.497 6.537,-0.816 0.882,-0.318 3.222,-0.732 5.2,-0.918 1.978,-0.186 4.316,-0.62 5.196,-0.964 0.88,-0.345 2.41,-0.641 3.4,-0.658 0.99,-0.017 2.52,-0.379 3.4,-0.804 0.88,-0.425 2.32,-0.78 3.2,-0.788 0.88,-0.008 2.14,-0.344 2.8,-0.746 0.66,-0.402 2.087,-0.852 3.171,-1.001 1.084,-0.148 2.254,-0.514 2.6,-0.814 0.346,-0.299 1.407,-0.663 2.357,-0.807 0.951,-0.144 2.121,-0.508 2.6,-0.808 0.48,-0.301 1.529,-0.661 2.332,-0.802 0.803,-0.14 1.665,-0.503 1.916,-0.805 0.251,-0.303 0.944,-0.669 1.54,-0.813 1.016,-0.247 1.906,-0.621 6.21,-2.616 0.95,-0.44 1.866,-0.8 2.037,-0.8 0.171,0 0.768,-0.36 1.328,-0.8 0.559,-0.44 1.279,-0.8 1.6,-0.8 0.32,0 1.04,-0.36 1.6,-0.8 0.559,-0.44 1.325,-0.8 1.701,-0.8 0.376,0 1.01,-0.36 1.408,-0.8 0.398,-0.44 1.016,-0.8 1.373,-0.8 0.357,0 0.957,-0.36 1.334,-0.8 0.377,-0.44 1.019,-0.8 1.427,-0.8 0.408,0 1.068,-0.36 1.466,-0.8 0.398,-0.44 0.868,-0.8 1.044,-0.8 0.176,0 1.003,-0.453 1.838,-1.007 0.835,-0.554 1.788,-1.182 2.118,-1.394 0.33,-0.213 1.23,-0.84 2,-1.394 0.77,-0.554 1.715,-1.118 2.1,-1.253 0.385,-0.135 0.7,-0.392 0.7,-0.572 0,-0.179 0.338,-0.433 0.751,-0.564 0.413,-0.132 1.268,-0.683 1.9,-1.227 0.632,-0.543 1.331,-0.988 1.553,-0.989 0.222,0 0.628,-0.36 0.903,-0.8 0.275,-0.44 0.768,-0.8 1.096,-0.8 0.329,0 0.597,-0.145 0.597,-0.321 0,-0.177 1.08,-1.083 2.4,-2.014 1.32,-0.931 2.4,-1.866 2.4,-2.079 0,-0.212 0.23,-0.386 0.511,-0.386 0.281,0 0.815,-0.315 1.186,-0.7 1.092,-1.132 1.943,-1.877 4.903,-4.291 1.54,-1.255 2.944,-2.536 3.12,-2.846 0.176,-0.31 0.481,-0.563 0.679,-0.563 0.479,0 15.601,-15.095 15.601,-15.573 0,-0.205 0.36,-0.487 0.8,-0.627 0.44,-0.14 0.8,-0.448 0.8,-0.685 0,-0.237 0.367,-0.81 0.816,-1.273 0.449,-0.463 1.214,-1.32 1.7,-1.904 0.486,-0.584 1.604,-1.927 2.484,-2.985 0.88,-1.058 2.005,-2.311 2.5,-2.784 0.495,-0.473 0.9,-1.056 0.9,-1.295 0,-0.239 0.244,-0.578 0.542,-0.754 0.297,-0.176 0.772,-0.77 1.055,-1.32 0.506,-0.984 0.756,-1.309 2.384,-3.1 0.451,-0.495 0.819,-0.981 0.819,-1.08 0,-0.099 0.539,-0.954 1.198,-1.9 0.659,-0.946 1.826,-2.62 2.594,-3.72 0.768,-1.1 1.399,-2.216 1.402,-2.48 0.003,-0.264 0.249,-0.624 0.546,-0.8 0.529,-0.314 1.227,-1.457 2.44,-3.993 0.334,-0.7 0.771,-1.373 0.97,-1.496 0.199,-0.123 0.486,-0.72 0.638,-1.327 0.152,-0.607 0.622,-1.426 1.044,-1.82 0.423,-0.393 0.768,-1.046 0.768,-1.451 0,-0.404 0.27,-0.959 0.6,-1.233 0.33,-0.274 0.601,-0.701 0.602,-0.949 0,-0.248 0.54,-1.531 1.198,-2.851 0.658,-1.32 1.198,-2.603 1.198,-2.851 0.001,-0.248 0.25,-0.656 0.552,-0.908 0.303,-0.251 0.661,-1.149 0.797,-1.997 0.135,-0.847 0.495,-1.747 0.8,-2 0.304,-0.252 0.664,-1.152 0.8,-2 0.135,-0.847 0.498,-1.749 0.806,-2.005 0.308,-0.256 0.678,-1.254 0.823,-2.219 0.145,-0.965 0.502,-1.952 0.793,-2.194 0.291,-0.242 0.653,-1.382 0.804,-2.533 0.151,-1.151 0.508,-2.453 0.792,-2.893 0.285,-0.44 0.648,-1.7 0.807,-2.8 0.16,-1.1 0.551,-2.406 0.871,-2.903 0.319,-0.497 0.739,-2.169 0.933,-3.717 0.194,-1.547 0.534,-3.031 0.755,-3.297 0.222,-0.267 0.59,-2.168 0.82,-4.224 0.23,-2.057 0.627,-3.991 0.882,-4.299 0.256,-0.308 0.613,-2.681 0.793,-5.272 0.18,-2.592 0.538,-5.247 0.796,-5.9 0.258,-0.653 0.625,-4.428 0.816,-8.388 0.191,-3.96 0.536,-8.1 0.768,-9.2 0.231,-1.1 0.596,-8.84 0.811,-17.2 0.215,-8.36 0.659,-19.79 0.987,-25.4 0.854,-14.609 0.904,-300.575 0.053,-301.811 -0.299,-0.434 -0.0676,-1.894728 -0.32961,-2.700728 0.0927,-1.189749 -0.25395,-2.126471 -0.54206,-3.270173 C 390.69569,8.2804626 388.84011,7.8098187 385.57182,6.250242 335.59561,4.6886268 285.04925,6.0072764 235,6 137,6 87.6,6.134 87.6,6.4 m 42.293,42.477 c -5.418,1.171 -7.424,8.727 -3.589,13.518 0.795,0.993 1.472,1.851 1.505,1.907 0.034,0.055 1.089,0.291 2.346,0.524 7.006,1.295 11.788,-3.49 10.269,-10.275 -0.265,-1.183 -0.603,-2.152 -0.753,-2.154 -0.149,-10e-4 -0.582,-0.548 -0.962,-1.216 -1.178,-2.07 -5.124,-3.102 -8.816,-2.304 m -50.554,6.811 c 15.634834,59.79512 0,0 0,0 M 219.2,102.457 c -4.775,1.105 -8.777,2.927 -11.797,5.369 -1.106,0.895 -2.298,1.795 -2.65,2 -0.797,0.467 -4.353,4.828 -4.353,5.34 0,0.207 -0.252,0.629 -0.56,0.937 -0.667,0.667 -3.039,5.641 -3.042,6.38 -0.002,0.284 -0.31,1.057 -0.684,1.717 -0.997,1.756 -1.033,14.53 -0.047,16.6 0.367,0.77 0.792,2.075 0.944,2.9 0.153,0.825 0.424,1.5 0.602,1.5 0.179,0 0.543,0.675 0.809,1.5 0.266,0.825 0.82,1.822 1.231,2.216 0.411,0.393 0.747,0.972 0.747,1.285 0,0.633 6.987,7.799 7.603,7.799 0.214,0 1.425,0.72 2.693,1.599 1.267,0.88 2.612,1.6 2.989,1.6 0.377,10e-4 1.637,0.401 2.8,0.89 2.842,1.195 16.419,1.372 18.611,0.244 0.713,-0.367 1.883,-0.794 2.6,-0.949 1.372,-0.297 4.465,-1.874 5.535,-2.824 0.348,-0.308 0.833,-0.56 1.08,-0.56 0.988,0 7.115,-6.706 8.431,-9.229 0.738,-1.414 1.577,-3.021 1.864,-3.571 0.48,-0.916 0.724,-1.901 1.786,-7.2 0.494,-2.469 0.479,-8.654 -0.027,-10.6 -0.228,-0.88 -0.679,-2.761 -1.001,-4.18 -0.322,-1.419 -0.851,-2.874 -1.175,-3.232 -0.324,-0.358 -0.589,-0.834 -0.589,-1.058 0,-0.224 -0.36,-0.823 -0.8,-1.33 -0.44,-0.507 -0.8,-1.128 -0.8,-1.38 0,-1.574 -7.537,-8.931 -10.6,-10.346 -1.32,-0.609 -3.12,-1.452 -4,-1.872 -0.88,-0.42 -2.32,-0.88 -3.2,-1.022 -0.88,-0.142 -2.488,-0.511 -3.573,-0.819 -2.7,-0.768 -7.352,-0.647 -11.427,0.296 m 12.005,9.372 c 11.133,2.834 18.843,16.049 15.416,26.423 -6.176,18.693 -32.105,20.43 -40.515,2.714 l -1.503,-3.166 -0.001,-5.6 -0.002,-5.6 1.901,-3.889 c 3.445,-7.045 7.737,-10.044 16.699,-11.667 1.584,-0.287 5.182,0.066 8.005,0.785 m 119.227,84.677 c -2.006,1.023 -2.072,4.682 -0.118,6.495 3.381,3.135 8.486,-1.409 6.02,-5.358 -0.94,-1.505 -4.02,-2.098 -5.902,-1.137 M 220,293.358 v 62.557 l 1.16,1.243 c 1.27,1.359 5.198,1.852 5.916,0.742 0.178,-0.275 0.324,-10.04 0.324,-21.7 V 315 l 1.196,-1.998 c 2.323,-3.883 6.853,-7.002 10.17,-7.002 3.407,0 10.38,4.463 10.443,6.684 0.005,0.174 0.361,0.766 0.791,1.316 3.01,3.848 -0.399,12.308 -5.993,14.875 -2.673,1.226 -2.493,0.05 -2.824,18.525 -0.162,9.02 -0.42,16.881 -0.574,17.469 -0.157,0.598 0.008,2.45 0.373,4.2 0.533,2.559 0.648,5.637 0.629,16.849 l -0.024,13.717 0.906,-0.478 c 0.499,-0.263 1.286,-0.856 1.75,-1.318 0.463,-0.461 3.073,-2.999 5.798,-5.639 2.726,-2.64 5.18,-5.311 5.453,-5.935 0.387,-0.884 0.513,-13.721 0.572,-58 0.042,-31.276 0.085,-57.611 0.096,-58.522 0.01,-0.911 -0.246,-2.167 -0.571,-2.791 -0.592,-1.136 -13.665,-14.552 -14.18,-14.552 -0.151,0 -1.084,-0.81 -2.074,-1.8 -0.99,-0.99 -1.966,-1.8 -2.169,-1.8 -0.202,0 -0.368,-0.193 -0.368,-0.429 0,-0.237 -1.08,-1.483 -2.4,-2.771 -1.32,-1.288 -2.4,-2.432 -2.4,-2.543 0,-0.111 -1.004,-1.25 -2.232,-2.53 -1.228,-1.28 -3.793,-3.992 -5.7,-6.027 -1.907,-2.035 -3.603,-3.7 -3.768,-3.7 -0.165,0 -0.3,28.151 -0.3,62.558 m 11.161,-45.598 c 3.981,2.804 7.099,6.164 7.944,8.557 0.443,1.256 1.109,3.09 1.48,4.077 0.481,1.276 0.647,2.775 0.577,5.2 -0.121,4.172 0.093,4.878 1.742,5.737 4.215,2.196 5.29,3.322 7.009,7.343 4.192,9.806 -7.416,20.175 -16.461,14.704 -2.547,-1.54 -5.453,-5.226 -5.886,-7.465 -0.653,-3.376 -0.438,-35.525 0.253,-37.852 0.675,-2.275 0.556,-2.264 3.342,-0.301 m 109.039,2.618 c -2.375,0.972 -3.059,4.214 -1.347,6.38 2.038,2.578 7.954,0.757 7.944,-2.445 -0.008,-2.91 -3.708,-5.117 -6.597,-3.935 M 47.842,362.352 c 9.968,2.59 14.138,13.748 8.015,21.448 -2.358,2.965 -2.3,2.481 -1.926,16.2 l 0.344,12.6 1.086,1.591 c 1.543,2.26 7.026,8.039 21.239,22.391 6.82,6.886 15.345,15.557 18.945,19.269 15.196,15.671 23.857,24.258 25.355,25.138 0.384,0.226 2.03,1.338 3.656,2.47 1.626,1.133 3.381,2.189 3.9,2.348 0.519,0.158 1.214,0.507 1.544,0.774 0.33,0.268 1.185,0.719 1.9,1.002 0.715,0.283 1.3,0.652 1.3,0.821 0,0.169 0.675,0.432 1.5,0.585 0.825,0.152 2.04,0.526 2.7,0.83 0.66,0.304 1.92,0.729 2.8,0.944 0.88,0.215 2.41,0.653 3.4,0.973 3.468,1.121 7.081,1.52 16.8,1.858 11.218,0.39 64.443,0.505 67.29,0.145 l 1.889,-0.239 -0.801,-1.019 c -4.546,-5.78 -2.615,-18.063 3.122,-19.854 0.495,-0.154 0.9,-0.442 0.9,-0.638 0,-0.197 0.877,-0.618 1.949,-0.937 3.014,-0.895 4.186,-1.642 5.849,-3.727 0.844,-1.059 1.91,-2.303 2.369,-2.766 0.458,-0.462 1.323,-1.362 1.921,-2 0.598,-0.637 1.633,-1.699 2.3,-2.359 1.318,-1.306 1.507,-2.522 0.792,-5.095 -1.179,-4.248 1.855,-10.664 6.575,-13.899 2.933,-2.01 9.238,-2.122 12.445,-0.22 2.208,1.31 5.4,4.116 5.4,4.748 0,0.221 0.255,0.687 0.567,1.035 5.356,5.968 -0.824,20.005 -8.821,20.035 -3.605,0.014 -3.846,0.173 -11.674,7.703 -1.857,1.786 -2.196,2.97 -1.916,6.684 0.192,2.535 0.102,3.951 -0.344,5.42 -0.565,1.864 -0.8,3.789 -0.462,3.789 0.082,0 0.851,-0.248 1.709,-0.55 0.857,-0.303 2.672,-0.679 4.032,-0.837 1.36,-0.158 2.673,-0.529 2.919,-0.824 0.245,-0.296 0.949,-0.648 1.564,-0.783 0.616,-0.136 2.089,-0.771 3.273,-1.413 1.184,-0.641 2.693,-1.414 3.353,-1.718 0.66,-0.303 1.447,-0.849 1.749,-1.213 0.302,-0.364 0.724,-0.662 0.937,-0.662 1.132,0 4.816,-3.354 21.674,-19.727 5.478,-5.32 11.075,-10.753 12.438,-12.073 1.362,-1.32 6.805,-6.63 12.095,-11.8 5.29,-5.17 10.82,-10.555 12.288,-11.966 4.469,-4.294 4.219,-2.973 4.221,-22.318 0.003,-18.442 0.036,-18.738 2.43,-21.457 3.746,-4.256 10.873,-3.365 13.016,1.628 0.717,1.671 0.813,41.358 0.106,43.905 -0.366,1.318 -2.18,3.306 -10.585,11.6 -31.814,31.39 -48.181,47.095 -53.369,51.208 -1.11,0.88 -2.332,1.87 -2.716,2.2 -1.285,1.106 -4.682,3.39 -6.084,4.092 -0.55,0.275 -1.544,0.862 -2.209,1.304 -2.244,1.491 -10.66,5.404 -11.624,5.404 -0.336,0 -1.366,0.34 -2.289,0.756 -0.923,0.416 -2.639,0.885 -3.814,1.042 -1.175,0.158 -2.59,0.523 -3.145,0.81 -0.555,0.288 -2.114,0.645 -3.464,0.793 -1.35,0.148 -3.445,0.568 -4.655,0.934 -3.461,1.046 -90.674,1.014 -94.062,-0.035 -1.243,-0.385 -2.959,-0.7 -3.812,-0.7 -0.854,0 -2.536,-0.281 -3.739,-0.625 -1.203,-0.343 -3.43,-0.885 -4.95,-1.203 -1.519,-0.318 -2.959,-0.733 -3.2,-0.923 -0.24,-0.19 -1.136,-0.471 -1.991,-0.625 -0.855,-0.154 -2.202,-0.628 -2.994,-1.052 -0.792,-0.425 -1.736,-0.772 -2.097,-0.772 -0.361,0 -0.857,-0.241 -1.101,-0.535 -0.245,-0.295 -1.167,-0.752 -2.049,-1.016 -0.883,-0.265 -1.605,-0.64 -1.605,-0.834 0,-0.194 -0.616,-0.556 -1.368,-0.804 -0.752,-0.249 -1.57,-0.695 -1.816,-0.992 -0.247,-0.297 -0.926,-0.66 -1.509,-0.807 -0.583,-0.146 -1.762,-0.822 -2.621,-1.502 -0.859,-0.68 -2.219,-1.676 -3.024,-2.213 -1.701,-1.135 -1.354,-0.816 -8.93,-8.188 -9.077,-8.83 -11.438,-11.16 -15.492,-15.284 -2.067,-2.104 -3.912,-3.825 -4.1,-3.825 -0.187,0 -0.34,-0.154 -0.34,-0.343 0,-0.188 -7.335,-7.724 -16.3,-16.746 -19.605,-19.73 -23.904,-24.33 -24.363,-26.069 -0.139,-0.527 -0.587,-1.292 -0.995,-1.7 -0.408,-0.408 -0.742,-1.021 -0.742,-1.362 0,-0.341 -0.292,-1.184 -0.648,-1.873 -1.169,-2.259 -1.726,-8.742 -1.739,-20.223 L 38,387.569 36,385.6 c -1.1,-1.083 -2,-2.149 -2,-2.369 0,-0.22 -0.332,-0.722 -0.737,-1.115 -2.594,-2.518 -2.618,-9.958 -0.044,-13.231 0.43,-0.546 0.781,-1.22 0.781,-1.498 0,-0.493 1.578,-1.987 3.79,-3.587 1.007,-0.728 5.145,-2.077 6.61,-2.154 0.33,-0.018 1.879,0.3 3.442,0.706 m 28.498,22.087 c 0.693,0.242 1.26,0.582 1.26,0.757 0,0.174 0.419,0.422 0.931,0.551 2.802,0.703 6.666,6.915 6.672,10.727 0.003,2.189 0.268,2.544 6.818,9.151 2.959,2.984 6.729,6.927 8.379,8.762 6.294,6.999 6.668,7.21 12.794,7.223 5.989,0.014 6.467,0.251 12.44,6.165 5.492,5.437 6.504,6.879 5.072,7.226 -3.203,0.776 -28.14,0.38 -29.706,-0.471 -1.447,-0.787 -5.435,-4.683 -20.66,-20.18 -4.902,-4.99 -4.987,-5.054 -7.15,-5.335 -14.112,-1.837 -17.147,-18.906 -4.39,-24.687 0.974,-0.441 6.175,-0.365 7.54,0.111 m 164.834,47.329 c 0.338,0.408 0.437,2.937 0.349,8.936 l -0.123,8.367 -1.193,1.765 c -0.657,0.97 -2.646,3.204 -4.421,4.964 -3.259,3.232 -14.643,14.199 -15.826,15.247 -1.871,1.657 -3.355,1.714 -38.406,1.463 l -33.447,-0.239 -2.153,2.203 c -4.841,4.953 -10.45,5.912 -16.463,2.816 -1.943,-1.001 -5.491,-4.712 -5.491,-5.744 0,-0.312 -0.304,-1.002 -0.676,-1.533 -2.803,-4.002 0.77,-14.796 5.66,-17.096 0.669,-0.315 1.709,-0.839 2.312,-1.165 3.488,-1.884 10.964,-0.292 14.304,3.048 l 1.4,1.4 h 32.915 c 22.051,0 33.008,-0.135 33.2,-0.41 0.157,-0.226 1.442,-1.396 2.857,-2.6 1.414,-1.205 3.971,-3.585 5.681,-5.29 1.711,-1.705 3.212,-3.1 3.336,-3.1 0.125,0 2.788,-2.509 5.919,-5.577 8.075,-7.911 9.206,-8.732 10.266,-7.455"
       stroke="none"
       fill="#0c1f2f"
       fill-rule="evenodd"
       sodipodi:nodetypes="cscsscccssccsccccssssssscscccccccccccccscccccsccccsccccccsscccccscccccsscccccccccsscccsccccsccsccccccccsccscsccccccccccscccccccssccscccsccccscscccsccsssccccssccccccsscccsscccccccscccccccccccccccsccsscccccccccccccccsscscccscccccccccccccscccsccscccccccccccccsccsscccscccccssscsccccccssscccssccccccsscccsccccccccsccccscccccccccccccsccssccccsccsscccccsscccccccssccscsccccscccscscsccscssssscscssscscssccsscsssssscsccsscscsscsccsssccssscsscsscsscccccssssssssccscscssssccccccccscscsssssssscssscccssssssccsssssssssscccssssccsscsscscccccsssscccccccssscscccsssccccccccccccccssccccsscssccscccsccccssssscsscccccccccccccccccccsccssccccccccscccccsssssssssccccccccccccccccccccccccccsscssscccccsccscccccscccccscsccccssccsccccccscccssccsccscccscsccscccscccssccsscccssccsccccsccccccccccccccccccccccscccscscccscc"
       style="fill:#ffffff;fill-opacity:1" />
  </g>
</svg>
